<svg viewBox="0 0 44 43" fill="none" xmlns="http://www.w3.org/2000/svg" style="margin-left:0.5rem; min-width:2rem" >
<g id="Reddit_logo" >
<path id="Vector" d="M21.5111 43C33.3914 43 43.0223 33.3741 43.0223 21.5C43.0223 9.62588 33.3914 0 21.5111 0C9.63087 0 0 9.62588 0 21.5C0 33.3741 9.63087 43 21.5111 43Z" fill="#222277"/>
<path id="Vector_2" d="M35.8573 21.5C35.7931 19.7685 34.3387 18.4164 32.6009 18.4751C31.831 18.5019 31.0984 18.8172 30.5423 19.3463C28.0934 17.6788 25.2167 16.765 22.2598 16.7008L23.6553 9.99378L28.2591 10.9611C28.3875 12.1422 29.4462 12.9973 30.6279 12.869C31.8096 12.7407 32.6651 11.6826 32.5368 10.5015C32.4085 9.3204 31.3497 8.46532 30.168 8.59358C29.489 8.66306 28.8794 9.05853 28.5425 9.6464L23.2704 8.59358C22.9121 8.51342 22.5539 8.73788 22.4737 9.10129C22.4737 9.10663 22.4737 9.10663 22.4737 9.11198L20.8856 16.5726C17.8912 16.6207 14.9771 17.5399 12.4961 19.218C11.2342 18.0316 9.24507 18.0904 8.05803 19.3569C6.87099 20.6182 6.92981 22.6063 8.19705 23.7927C8.44302 24.0225 8.72641 24.2202 9.04189 24.3592C9.0205 24.6745 9.0205 24.9898 9.04189 25.3051C9.04189 30.1203 14.6563 34.0377 21.5807 34.0377C28.5051 34.0377 34.1195 30.1256 34.1195 25.3051C34.1409 24.9898 34.1409 24.6745 34.1195 24.3592C35.1996 23.8194 35.8787 22.7078 35.8573 21.5ZM14.3462 23.6537C14.3462 22.4673 15.314 21.5 16.501 21.5C17.6881 21.5 18.6559 22.4673 18.6559 23.6537C18.6559 24.8402 17.6881 25.8075 16.501 25.8075C15.3086 25.7968 14.3462 24.8402 14.3462 23.6537ZM26.8422 29.5645C25.3129 30.7135 23.4415 31.3014 21.5272 31.2212C19.613 31.3014 17.7415 30.7135 16.2123 29.5645C16.0091 29.3187 16.0465 28.9499 16.2925 28.7468C16.5064 28.5705 16.8111 28.5705 17.0304 28.7468C18.3243 29.6928 19.9017 30.1737 21.5058 30.0989C23.1099 30.1844 24.6927 29.7248 26.0027 28.7896C26.238 28.5598 26.623 28.5651 26.8529 28.8003C27.0828 29.0354 27.0775 29.4202 26.8422 29.65V29.5645ZM26.4572 25.8823C25.2702 25.8823 24.3023 24.915 24.3023 23.7286C24.3023 22.5421 25.2702 21.5748 26.4572 21.5748C27.6442 21.5748 28.6121 22.5421 28.6121 23.7286C28.6602 24.915 27.7351 25.9144 26.5481 25.9625C26.5107 25.9625 26.4786 25.9625 26.4412 25.9625L26.4572 25.8823Z" fill="white"/>
</g>
</svg>
