<?xml version="1.0" encoding="utf-8"?>
<!-- Generator: Adobe Illustrator 24.1.1, SVG Export Plug-In . SVG Version: 6.00 Build 0)  -->
<svg version="1.1" id="Layer_1" xmlns="http://www.w3.org/2000/svg" xmlns:xlink="http://www.w3.org/1999/xlink" x="0px" y="0px"
	 viewBox="0 0 512 512" style="enable-background:new 0 0 512 512; color: white;" xml:space="preserve">
<style type="text/css">
	.st0{fill:rgb(154, 154, 154);}
</style>
<g>
	<path class="st0" d="M512,113.8v-6l-1.4-4.8l-2.6-4l-4-4.8l-3.4-2l-5.4-2.8h-5.7l-6-4H341.4c-15.7,0-28.4,12.7-28.4,28.4
		c0,15.7,12.7,28.4,28.4,28.4h80.5l-113.8,134l-122.9-73.1c-12-7.2-27.5-4.5-36.4,6.3L6.6,380c-10.1,12.1-8.4,30,3.6,40.1l0.1,0
		c5.1,4.2,11.6,6.6,18.2,6.6c8.5,0,16.5-3.7,21.9-10.2L177,264.5l121.4,72.8c11.9,7.1,27.1,4.5,36.1-6l120.6-140.8V256
		c0,15.7,12.7,28.4,28.4,28.4c15.7,0,28.4-12.7,28.4-28.4V113.8z"/>
</g>
</svg>
